# xmcd
# 
# Track frame offsets:
#     150
#     12393
#     24098
#     62113
#     75818
#     86528
#     98270
#     110490
#     129105
#     141540
#     152273
#     169133
#     187868
#     199675
#     212625
#     230808
# 
# Disc length: 3300
# 
# Revision: 0
# Processed by: cddbd v1.5.2PL0 Copyright (c) Steve Scherf et al.
# Submitted via: fre:ac v1.0.17
# 
DISCID=ba0ce210
DTITLE=Johnny Cash - 16 Biggest Hits
DYEAR=1999
DGENRE=Country
TTITLE0=I Walk the Line
TTITLE1=I Still Miss Someone
TTITLE2=The Legend of John Henry's Hammer
TTITLE3=Don't Take Your Guns to Town
TTITLE4=In the Jailhouse Now
TTITLE5=Ring of Fire
TTITLE6=Understand Your Man
TTITLE7=Ballad of Ira Hayes
TTITLE8=Folsom Prison Blues
TTITLE9=Daddy Sang Bass
TTITLE10=A Boy Named Sue
TTITLE11=Sunday Morning Coming Down
TTITLE12=Flesh and Blood
TTITLE13=Man in Black
TTITLE14=One Piece at a Time
TTITLE15=(Ghost) Riders in the Sky
EXTD=\n YEAR: 1999
EXTT0=
EXTT1=
EXTT2=
EXTT3=
EXTT4=
EXTT5=
EXTT6=
EXTT7=
EXTT8=
EXTT9=
EXTT10=
EXTT11=
EXTT12=
EXTT13=
EXTT14=
EXTT15=
PLAYORDER=
